<svg xmlns="http://www.w3.org/2000/svg" width="1280" height="900" viewBox="0 0 1280 900"><defs><filter id="s"><feGaussianBlur stdDeviation="18"/></filter><linearGradient id="shade"><stop stop-color="#33172c"/><stop offset=".5" stop-color="#765565"/><stop offset="1" stop-color="#251020"/></linearGradient></defs><rect x="0" y="0" width="1280" height="900" fill="#ff765f"/><rect x="65" y="70" width="1150" height="765" fill="#ffe4c8"/><text x="105" y="135" fill="#33172c" font-family="Arial,sans-serif" font-size="32" >LUMEN</text><text x="810" y="135" fill="#33172c" font-family="Arial,sans-serif" font-size="17" >Objects   Approach   Contact</text><text x="105" y="320" fill="#33172c" font-family="Arial,sans-serif" font-size="90" >Light,</text><text x="105" y="420" fill="#33172c" font-family="Arial,sans-serif" font-size="90" >considered.</text><text x="105" y="510" fill="#33172c" font-family="Arial,sans-serif" font-size="22" >A quiet presence for your space.</text><rect x="105" y="670" width="250" height="60" fill="#33172c"/><text x="130" y="710" fill="#ffe4c8" font-family="Arial,sans-serif" font-size="20" >Explore the object ↗</text><ellipse cx="910" cy="707" rx="170" ry="25" fill="#33172c" opacity=".15" filter="url(#s)"/><path d="M805 275H1005L1050 525Q905 575 760 525Z" fill="url(#shade)"/><rect x="901" y="535" width="13" height="140" fill="#33172c"/><ellipse cx="907" cy="682" rx="90" ry="17" fill="#33172c"/><g transform="translate(1135 765) scale(0.18)" fill="none" stroke="#33172c" stroke-width="48"><path transform="rotate(0)" d="M139.3 14 A140 140 0 0 1 14 139.3"/><path transform="rotate(90)" d="M139.3 14 A140 140 0 0 1 14 139.3"/><path transform="rotate(180)" d="M139.3 14 A140 140 0 0 1 14 139.3"/><path transform="rotate(270)" d="M139.3 14 A140 140 0 0 1 14 139.3"/></g></svg>