<svg xmlns="http://www.w3.org/2000/svg" viewBox="0 0 900 600"><rect width="900" height="600" fill="#e8e5dd"/><g fill="none" stroke="#807d75" stroke-width="1"><path d="M70 70h760M70 530h760M70 70v460M830 70v460" stroke-dasharray="4 8"/></g><rect x="195" y="115" width="510" height="374" fill="#d4d0c5" stroke="#1a1a18" stroke-width="2"/><rect x="365" y="217" width="170" height="170" fill="#e8e5dd" stroke="#1a1a18" stroke-width="2"/><rect x="565" y="170" width="90" height="140" fill="#bdb9ae" stroke="#1a1a18" stroke-width="2"/><path d="M570 178L650 178" stroke="#807d75" stroke-width="1" fill="none"/><path d="M570 190L650 190" stroke="#807d75" stroke-width="1" fill="none"/><path d="M570 202L650 202" stroke="#807d75" stroke-width="1" fill="none"/><path d="M570 214L650 214" stroke="#807d75" stroke-width="1" fill="none"/><path d="M570 226L650 226" stroke="#807d75" stroke-width="1" fill="none"/><path d="M570 238L650 238" stroke="#807d75" stroke-width="1" fill="none"/><path d="M570 250L650 250" stroke="#807d75" stroke-width="1" fill="none"/><path d="M570 262L650 262" stroke="#807d75" stroke-width="1" fill="none"/><path d="M570 274L650 274" stroke="#807d75" stroke-width="1" fill="none"/><path d="M570 286L650 286" stroke="#807d75" stroke-width="1" fill="none"/><rect x="220" y="135" width="50" height="35" fill="none" stroke="#807d75" stroke-width="1"/><rect x="220" y="420" width="50" height="35" fill="none" stroke="#807d75" stroke-width="1"/><rect x="295" y="135" width="50" height="35" fill="none" stroke="#807d75" stroke-width="1"/><rect x="295" y="420" width="50" height="35" fill="none" stroke="#807d75" stroke-width="1"/><rect x="370" y="135" width="50" height="35" fill="none" stroke="#807d75" stroke-width="1"/><rect x="370" y="420" width="50" height="35" fill="none" stroke="#807d75" stroke-width="1"/><rect x="445" y="135" width="50" height="35" fill="none" stroke="#807d75" stroke-width="1"/><rect x="445" y="420" width="50" height="35" fill="none" stroke="#807d75" stroke-width="1"/><rect x="520" y="135" width="50" height="35" fill="none" stroke="#807d75" stroke-width="1"/><rect x="520" y="420" width="50" height="35" fill="none" stroke="#807d75" stroke-width="1"/><rect x="595" y="135" width="50" height="35" fill="none" stroke="#807d75" stroke-width="1"/><rect x="595" y="420" width="50" height="35" fill="none" stroke="#807d75" stroke-width="1"/><path d="M365 217L535 217" stroke="#9b6750" stroke-width="2" fill="none"/><path d="M365 387L535 387" stroke="#9b6750" stroke-width="2" fill="none"/><circle cx="280" cy="330" r="17" fill="#f0eee8"/><text x="280" y="335" text-anchor="middle" font-family="Arial" font-size="13" fill="#1a1a18">01</text><circle cx="450" cy="300" r="17" fill="#f0eee8"/><text x="450" y="305" text-anchor="middle" font-family="Arial" font-size="13" fill="#1a1a18">02</text><circle cx="610" cy="240" r="17" fill="#f0eee8"/><text x="610" y="245" text-anchor="middle" font-family="Arial" font-size="13" fill="#1a1a18">03</text><circle cx="455" cy="465" r="17" fill="#f0eee8"/><text x="455" y="470" text-anchor="middle" font-family="Arial" font-size="13" fill="#1a1a18">04</text><text x="72" y="566" font-family="Arial,sans-serif" font-size="12" fill="#615e57">AXIS / CONCEPT DIAGRAM — NOT FOR CONSTRUCTION</text></svg>
