<svg xmlns="http://www.w3.org/2000/svg" width="900" height="600" viewBox="0 0 900 600"><rect width="900" height="600" fill="#ece9e1"/><g stroke="#35493e" stroke-width="2" fill="none"><path d="M100 390H790M130 368H645V385H130Z"/><path d="M110 211H670V218H110ZM157 201H607V211H157ZM130 224H145V366M630 224H645V366"/><path d="M145 224H630M165 368V320H285V368M260 368V323H370V368"/><path d="M644 366H780V371H644Z" stroke="#8b816d"/><path d="M630 229V364" stroke="#709a9e" stroke-width="5"/><path d="M82 219V368M75 219H90M75 368H90" stroke="#8c9388"/></g><g font-family="Arial,sans-serif" fill="#35493e"><text x="100" y="150" font-size="25">Горизонт / поперечная связь</text><text x="38" y="300" font-size="15">2,78 м</text><text x="177" y="417" font-size="18">Кухня</text><text x="395" y="417" font-size="18">Общее пространство</text><text x="680" y="417" font-size="18">Терраса</text><text x="100" y="500" font-size="16">Тонкая кромка кровли; основная толщина отступает от фасада.</text><text x="100" y="530" font-size="16">Условный разрез. Конструктивные расчёты не выполнялись.</text></g></svg>
