<svg xmlns="http://www.w3.org/2000/svg" viewBox="0 0 900 600"><rect width="900" height="600" fill="#e8e5dd"/><g fill="none" stroke="#807d75" stroke-width="1"><path d="M70 70h760M70 530h760M70 70v460M830 70v460" stroke-dasharray="4 8"/></g><path d="M95 415L810 415" stroke="#1a1a18" stroke-width="2" fill="none"/><rect x="660" y="285" width="115" height="130" fill="#ab9679" stroke="#1a1a18" stroke-width="2"/><rect x="651" y="274" width="134" height="12" fill="#d4d0c5" stroke="#1a1a18" stroke-width="2"/><rect x="670" y="295" width="45" height="120" fill="#adbbb4" stroke="#1a1a18" stroke-width="2"/><circle cx="180" cy="290" r="45" fill="#b2b899" stroke="#80876c"/><path d="M173 290h14M180 283v14" stroke="#80876c"/><path d="M180 300L180 415" stroke="#807d75" stroke-width="5" fill="none"/><circle cx="300" cy="290" r="45" fill="#b2b899" stroke="#80876c"/><path d="M293 290h14M300 283v14" stroke="#80876c"/><path d="M300 300L300 415" stroke="#807d75" stroke-width="5" fill="none"/><circle cx="420" cy="290" r="45" fill="#b2b899" stroke="#80876c"/><path d="M413 290h14M420 283v14" stroke="#80876c"/><path d="M420 300L420 415" stroke="#807d75" stroke-width="5" fill="none"/><circle cx="540" cy="290" r="45" fill="#b2b899" stroke="#80876c"/><path d="M533 290h14M540 283v14" stroke="#80876c"/><path d="M540 300L540 415" stroke="#807d75" stroke-width="5" fill="none"/><rect x="350" y="390" width="80" height="8" fill="#ab9679" stroke="#1a1a18" stroke-width="2"/><path d="M360 398L360 415" stroke="#807d75" stroke-width="3" fill="none"/><path d="M420 398L420 415" stroke="#807d75" stroke-width="3" fill="none"/><circle cx="180" cy="470" r="17" fill="#f0eee8"/><text x="180" y="475" text-anchor="middle" font-family="Arial" font-size="13" fill="#1a1a18">01</text><circle cx="400" cy="470" r="17" fill="#f0eee8"/><text x="400" y="475" text-anchor="middle" font-family="Arial" font-size="13" fill="#1a1a18">02</text><circle cx="540" cy="470" r="17" fill="#f0eee8"/><text x="540" y="475" text-anchor="middle" font-family="Arial" font-size="13" fill="#1a1a18">03</text><circle cx="720" cy="350" r="17" fill="#f0eee8"/><text x="720" y="355" text-anchor="middle" font-family="Arial" font-size="13" fill="#1a1a18">04</text><text x="72" y="566" font-family="Arial,sans-serif" font-size="12" fill="#615e57">AXIS / CONCEPT DIAGRAM — NOT FOR CONSTRUCTION</text></svg>
